<svg xmlns="http://www.w3.org/2000/svg" viewBox="0 0 237.97 47.26"><title>Paccar logo - Brandlogos.net</title><path d="M407.61,512.14V500.83h5.32a5.66,5.66,0,0,1,0,11.31h-5.32ZM393,490v43.91h14.6V523.24H417A16.63,16.63,0,1,0,417,490H393Z" transform="translate(-393.02 -488.37)"/><path d="M447,490l-24.23,43.91h16.42l5.93-10.75h13.76v10.75h14.37V490H447Zm11.88,22.18h-7.71l7.71-14Z" transform="translate(-393.02 -488.37)"/><path d="M558.35,490l-14.49,26.28a9,9,0,1,1,.48-7.42l7.73-14.05a23.63,23.63,0,0,0-34.8,2.7,24,24,0,0,0-2.09,3.16L508.92,512l-2.33,4.24a9,9,0,1,1,.48-7.42l7.73-14a23.63,23.63,0,1,0,2.46,31.76,23.63,23.63,0,0,0,39.49-3.41h13.48v10.75h14.37V490H558.35Zm12,22.18h-7.71l7.71-14Z" transform="translate(-393.02 -488.37)"/><path d="M603.87,512.14V500.83h5.32a5.66,5.66,0,0,1,0,11.31h-5.32ZM631,533.87l-8.54-15.47A15.7,15.7,0,0,0,613.27,490h-24v43.91h14.6V523.24h4.81l5.88,10.64H631Z" transform="translate(-393.02 -488.37)"/></svg>